<svg width="99.038" height="15.387" viewBox="0 0 99.038 15.387" xmlns="http://www.w3.org/2000/svg">
  <g id="svgGroup" stroke-linecap="round" fill-rule="evenodd" font-size="9pt" stroke="#000" stroke-width="0.25mm" fill="#6610f2">
    <path d="M 46.529 14.329 L 46.529 8.763 L 39.353 8.763 L 39.353 15.019 Q 39.218 15.064 38.995 15.12 A 9.85 9.85 0 0 1 38.985 15.123 Q 38.755 15.18 38.479 15.18 Q 37.587 15.18 37.481 14.519 A 1.203 1.203 0 0 1 37.467 14.329 L 37.467 1.127 A 1.244 1.244 0 0 1 37.542 1.1 Q 37.65 1.065 37.824 1.024 A 2.131 2.131 0 0 1 38.189 0.971 A 2.516 2.516 0 0 1 38.341 0.966 Q 39.233 0.966 39.339 1.628 A 1.203 1.203 0 0 1 39.353 1.817 L 39.353 7.199 L 46.529 7.199 L 46.529 1.127 A 1.244 1.244 0 0 1 46.604 1.1 Q 46.712 1.065 46.886 1.024 A 2.131 2.131 0 0 1 47.251 0.971 A 2.516 2.516 0 0 1 47.403 0.966 Q 48.295 0.966 48.401 1.628 A 1.203 1.203 0 0 1 48.415 1.817 L 48.415 15.019 Q 48.28 15.064 48.057 15.12 A 9.85 9.85 0 0 1 48.047 15.123 Q 47.817 15.18 47.541 15.18 Q 46.649 15.18 46.543 14.519 A 1.203 1.203 0 0 1 46.529 14.329 Z M 89.861 14.352 L 89.861 0.161 A 1.244 1.244 0 0 1 89.936 0.134 Q 90.044 0.099 90.218 0.058 A 2.131 2.131 0 0 1 90.583 0.005 A 2.516 2.516 0 0 1 90.735 0 A 1.641 1.641 0 0 1 91.098 0.037 Q 91.601 0.151 91.685 0.625 A 1.171 1.171 0 0 1 91.701 0.828 L 91.701 4.968 A 6.054 6.054 0 0 1 92.302 4.663 Q 92.617 4.524 92.977 4.401 A 9.667 9.667 0 0 1 93.001 4.393 Q 93.748 4.14 94.691 4.14 Q 95.657 4.14 96.451 4.393 Q 97.244 4.646 97.819 5.164 A 3.38 3.38 0 0 1 98.563 6.141 A 4.089 4.089 0 0 1 98.716 6.475 A 4.227 4.227 0 0 1 98.967 7.392 Q 99.036 7.816 99.038 8.295 A 6.904 6.904 0 0 1 99.038 8.326 L 99.038 15.019 A 1.244 1.244 0 0 1 98.964 15.046 Q 98.855 15.081 98.682 15.123 Q 98.44 15.18 98.187 15.18 A 1.726 1.726 0 0 1 97.82 15.145 Q 97.198 15.009 97.198 14.352 L 97.198 8.372 Q 97.198 6.992 96.439 6.325 A 2.603 2.603 0 0 0 95.269 5.744 A 3.79 3.79 0 0 0 94.438 5.658 A 3.985 3.985 0 0 0 93.153 5.863 A 3.756 3.756 0 0 0 92.932 5.946 A 5.528 5.528 0 0 0 92.122 6.354 A 4.623 4.623 0 0 0 91.701 6.647 L 91.701 15.019 A 1.366 1.366 0 0 1 91.627 15.046 Q 91.522 15.081 91.356 15.123 Q 91.126 15.18 90.85 15.18 A 1.726 1.726 0 0 1 90.483 15.145 Q 89.861 15.009 89.861 14.352 Z M 25.154 2.936 A 0.883 0.883 0 0 0 25.208 2.622 Q 25.208 2.3 24.898 1.967 A 1.956 1.956 0 0 0 24.753 1.826 Q 24.603 1.696 24.411 1.577 A 3.802 3.802 0 0 0 24.024 1.369 Q 23.707 1.22 23.317 1.104 A 7.528 7.528 0 0 0 22.667 0.943 Q 21.873 0.782 20.93 0.782 Q 19.573 0.782 18.343 1.242 Q 17.112 1.702 16.192 2.622 A 6.024 6.024 0 0 0 15.46 3.513 A 7.235 7.235 0 0 0 14.732 4.911 Q 14.436 5.659 14.302 6.542 A 10.365 10.365 0 0 0 14.191 8.096 Q 14.191 8.955 14.309 9.711 A 7.451 7.451 0 0 0 14.72 11.27 A 7.584 7.584 0 0 0 15.058 12.017 A 6.131 6.131 0 0 0 16.158 13.536 Q 17.066 14.444 18.308 14.904 A 7.099 7.099 0 0 0 19.105 15.147 A 8.03 8.03 0 0 0 20.999 15.364 Q 22.425 15.364 23.345 15.077 Q 23.92 14.897 24.343 14.686 A 3.648 3.648 0 0 0 24.794 14.421 A 2.059 2.059 0 0 0 24.935 14.312 Q 25.078 14.191 25.172 14.061 A 0.865 0.865 0 0 0 25.346 13.547 Q 25.346 13.225 25.139 12.984 A 1.702 1.702 0 0 0 25.108 12.948 Q 25.022 12.854 24.933 12.785 A 0.96 0.96 0 0 0 24.702 12.65 A 4.173 4.173 0 0 1 24.659 12.683 Q 24.353 12.912 23.974 13.109 A 6.919 6.919 0 0 1 23.219 13.444 Q 22.721 13.631 22.124 13.713 A 7.246 7.246 0 0 1 21.137 13.777 A 6.545 6.545 0 0 1 20.437 13.741 A 5.271 5.271 0 0 1 19.09 13.421 Q 18.17 13.064 17.515 12.351 A 4.485 4.485 0 0 1 16.963 11.607 A 5.593 5.593 0 0 1 16.491 10.58 Q 16.284 9.985 16.194 9.273 A 9.335 9.335 0 0 1 16.123 8.096 Q 16.123 6.693 16.503 5.612 A 5.929 5.929 0 0 1 16.828 4.853 A 4.585 4.585 0 0 1 17.549 3.818 Q 18.216 3.105 19.113 2.737 A 4.738 4.738 0 0 1 19.697 2.541 A 5.326 5.326 0 0 1 21.068 2.369 A 7.903 7.903 0 0 1 21.64 2.389 Q 22.065 2.42 22.427 2.499 A 3.618 3.618 0 0 1 23.161 2.737 A 10.599 10.599 0 0 1 23.914 3.117 A 7.888 7.888 0 0 1 24.564 3.519 A 1.204 1.204 0 0 0 24.724 3.431 A 1.34 1.34 0 0 0 25.013 3.174 A 0.803 0.803 0 0 0 25.154 2.936 Z M 60.582 9.844 L 53.498 10.833 A 4.288 4.288 0 0 0 54.062 12.29 Q 54.762 13.384 56.155 13.709 A 5.725 5.725 0 0 0 57.454 13.846 A 4.999 4.999 0 0 0 58.479 13.745 A 4.097 4.097 0 0 0 59.202 13.524 Q 59.984 13.202 60.444 12.834 A 1.335 1.335 0 0 1 60.735 13.057 A 0.904 0.904 0 0 1 60.996 13.708 Q 60.996 14.013 60.739 14.297 A 1.489 1.489 0 0 1 60.709 14.329 Q 60.455 14.593 60.039 14.804 A 3.773 3.773 0 0 1 59.927 14.858 Q 59.436 15.086 58.787 15.224 A 7.327 7.327 0 0 1 58.777 15.226 Q 58.121 15.364 57.362 15.364 Q 54.937 15.364 53.433 14.167 A 4.913 4.913 0 0 1 53.142 13.915 Q 51.709 12.578 51.598 10.103 A 9.443 9.443 0 0 1 51.589 9.683 A 7.741 7.741 0 0 1 51.681 8.462 A 5.85 5.85 0 0 1 51.969 7.349 A 5.332 5.332 0 0 1 52.556 6.197 A 4.602 4.602 0 0 1 53.027 5.612 Q 53.705 4.899 54.648 4.52 A 5.319 5.319 0 0 1 56.354 4.149 A 6.214 6.214 0 0 1 56.695 4.14 A 5.43 5.43 0 0 1 57.984 4.289 A 4.745 4.745 0 0 1 58.604 4.485 Q 59.478 4.83 60.111 5.463 Q 60.743 6.095 61.1 6.958 A 4.742 4.742 0 0 1 61.438 8.395 A 5.691 5.691 0 0 1 61.456 8.855 Q 61.456 9.149 61.379 9.345 A 0.641 0.641 0 0 1 61.226 9.58 A 0.892 0.892 0 0 1 60.93 9.763 Q 60.808 9.81 60.659 9.834 A 1.711 1.711 0 0 1 60.582 9.844 Z M 72.243 7.866 L 72.243 13.317 A 2.101 2.101 0 0 1 72.225 13.603 Q 72.184 13.904 72.048 14.088 A 1.475 1.475 0 0 1 71.839 14.312 Q 71.681 14.453 71.461 14.582 A 4.138 4.138 0 0 1 70.997 14.812 Q 70.756 14.915 70.471 15.008 A 9.034 9.034 0 0 1 70.001 15.146 Q 69.092 15.387 67.919 15.387 A 8.876 8.876 0 0 1 66.663 15.304 Q 65.387 15.121 64.573 14.536 A 2.75 2.75 0 0 1 63.412 12.519 A 3.97 3.97 0 0 1 63.388 12.075 A 3.702 3.702 0 0 1 63.495 11.159 A 2.456 2.456 0 0 1 64.377 9.787 Q 65.366 9.016 67.16 8.832 L 70.426 8.51 L 70.426 7.866 A 3.029 3.029 0 0 0 70.365 7.238 Q 70.284 6.856 70.095 6.571 A 1.586 1.586 0 0 0 69.736 6.187 A 2.397 2.397 0 0 0 68.911 5.786 Q 68.451 5.658 67.873 5.658 A 6.015 6.015 0 0 0 66.461 5.82 A 5.437 5.437 0 0 0 66.056 5.934 Q 65.205 6.21 64.538 6.555 Q 64.354 6.394 64.205 6.187 Q 64.055 5.98 64.055 5.727 A 1.056 1.056 0 0 1 64.08 5.493 A 0.74 0.74 0 0 1 64.216 5.198 Q 64.334 5.046 64.551 4.907 A 2.445 2.445 0 0 1 64.722 4.807 Q 65.343 4.485 66.148 4.313 Q 66.953 4.14 67.896 4.14 A 7.235 7.235 0 0 1 69.174 4.246 Q 70.3 4.448 71.07 5.037 Q 72.161 5.871 72.237 7.6 A 6.016 6.016 0 0 1 72.243 7.866 Z M 0 13.892 L 0 2.07 A 1.179 1.179 0 0 1 0.019 1.852 Q 0.042 1.729 0.094 1.633 A 0.589 0.589 0 0 1 0.184 1.507 Q 0.368 1.311 0.759 1.196 A 6.19 6.19 0 0 1 1.607 0.99 A 8.166 8.166 0 0 1 2.369 0.897 Q 3.266 0.828 4.163 0.828 Q 5.842 0.828 7.234 1.277 A 6.901 6.901 0 0 1 8.816 2.008 A 6.027 6.027 0 0 1 9.614 2.611 A 5.933 5.933 0 0 1 11.01 4.495 A 6.975 6.975 0 0 1 11.155 4.819 A 6.89 6.89 0 0 1 11.586 6.35 Q 11.707 7.082 11.707 7.912 Q 11.707 9.798 11.19 11.19 Q 10.672 12.581 9.718 13.501 A 5.896 5.896 0 0 1 7.698 14.766 A 6.933 6.933 0 0 1 7.406 14.87 A 8.772 8.772 0 0 1 5.633 15.25 A 11.265 11.265 0 0 1 4.37 15.318 Q 3.658 15.318 2.773 15.264 A 36.729 36.729 0 0 1 2.714 15.261 A 7.667 7.667 0 0 1 1.175 15.01 A 7.06 7.06 0 0 1 0.966 14.95 A 2.146 2.146 0 0 1 0.567 14.785 Q 0 14.473 0 13.892 Z M 81.282 12.282 L 81.282 1.357 A 1.244 1.244 0 0 1 81.357 1.33 Q 81.465 1.295 81.639 1.254 A 2.131 2.131 0 0 1 82.004 1.201 A 2.516 2.516 0 0 1 82.156 1.196 A 1.641 1.641 0 0 1 82.519 1.233 Q 83.022 1.347 83.106 1.821 A 1.171 1.171 0 0 1 83.122 2.024 L 83.122 4.669 L 86.894 4.669 Q 86.963 4.784 87.032 4.98 A 1.22 1.22 0 0 1 87.097 5.292 A 1.452 1.452 0 0 1 87.101 5.405 A 1.29 1.29 0 0 1 87.071 5.7 Q 86.976 6.101 86.591 6.172 A 0.991 0.991 0 0 1 86.411 6.187 L 83.122 6.187 L 83.122 12.167 A 2.559 2.559 0 0 0 83.163 12.639 Q 83.211 12.896 83.318 13.093 A 1.11 1.11 0 0 0 83.64 13.467 A 1.755 1.755 0 0 0 84.169 13.724 Q 84.566 13.846 85.1 13.846 A 2.628 2.628 0 0 0 85.487 13.816 Q 85.718 13.781 85.974 13.708 Q 86.368 13.596 86.654 13.453 A 2.506 2.506 0 0 0 86.779 13.386 A 1.355 1.355 0 0 1 86.923 13.558 A 1.819 1.819 0 0 1 87.032 13.731 Q 87.147 13.938 87.147 14.214 A 0.793 0.793 0 0 1 86.899 14.79 Q 86.792 14.898 86.639 14.991 A 1.92 1.92 0 0 1 86.549 15.042 A 2.312 2.312 0 0 1 86.036 15.238 Q 85.78 15.305 85.474 15.336 A 5.724 5.724 0 0 1 84.893 15.364 A 5.956 5.956 0 0 1 83.815 15.272 Q 82.924 15.108 82.283 14.651 A 2.24 2.24 0 0 1 81.441 13.452 Q 81.282 12.942 81.282 12.282 Z M 1.863 2.576 L 1.863 13.524 A 6.619 6.619 0 0 0 2.66 13.67 A 7.809 7.809 0 0 0 3.048 13.708 Q 3.68 13.754 4.347 13.754 Q 6.274 13.754 7.523 13.012 A 4.069 4.069 0 0 0 8.43 12.282 Q 9.526 11.103 9.744 9.01 A 10.596 10.596 0 0 0 9.798 7.912 Q 9.798 6.631 9.459 5.673 A 4.646 4.646 0 0 0 9.35 5.394 A 5.013 5.013 0 0 0 8.724 4.31 A 4.264 4.264 0 0 0 8.131 3.68 Q 7.36 3.013 6.337 2.703 A 7.299 7.299 0 0 0 4.646 2.407 A 8.51 8.51 0 0 0 4.14 2.392 A 20.197 20.197 0 0 0 3.616 2.399 Q 3.357 2.405 3.128 2.419 A 10.644 10.644 0 0 0 2.864 2.438 A 9.844 9.844 0 0 0 2.25 2.509 A 7.912 7.912 0 0 0 1.863 2.576 Z M 75.785 14.352 L 75.785 0.161 A 1.244 1.244 0 0 1 75.86 0.134 Q 75.968 0.099 76.142 0.058 Q 76.383 0 76.636 0 A 1.726 1.726 0 0 1 77.003 0.036 Q 77.625 0.172 77.625 0.828 L 77.625 15.019 A 1.366 1.366 0 0 1 77.551 15.046 Q 77.446 15.081 77.28 15.123 Q 77.05 15.18 76.774 15.18 A 1.726 1.726 0 0 1 76.407 15.145 Q 75.785 15.009 75.785 14.352 Z M 53.383 9.407 L 59.708 8.533 A 3.87 3.87 0 0 0 59.469 7.479 A 3.133 3.133 0 0 0 58.823 6.452 A 2.522 2.522 0 0 0 57.512 5.723 A 3.791 3.791 0 0 0 56.672 5.635 A 3.293 3.293 0 0 0 55.436 5.861 A 3.033 3.033 0 0 0 54.349 6.613 Q 53.546 7.466 53.409 8.961 A 6.781 6.781 0 0 0 53.383 9.407 Z M 70.426 13.294 L 70.426 9.959 L 67.574 10.258 Q 66.378 10.373 65.803 10.799 A 1.381 1.381 0 0 0 65.25 11.744 A 2.078 2.078 0 0 0 65.228 12.052 A 1.822 1.822 0 0 0 65.322 12.651 A 1.502 1.502 0 0 0 65.895 13.398 Q 66.535 13.85 67.811 13.868 A 7.574 7.574 0 0 0 67.919 13.869 A 7.891 7.891 0 0 0 68.57 13.844 Q 69.113 13.799 69.518 13.674 A 7.596 7.596 0 0 0 69.812 13.577 Q 70.219 13.432 70.426 13.294 Z M 33.373 9.821 L 27.876 9.821 Q 27.807 9.66 27.761 9.488 Q 27.72 9.332 27.716 9.13 A 2.216 2.216 0 0 1 27.715 9.085 A 1.09 1.09 0 0 1 27.756 8.771 Q 27.861 8.426 28.227 8.335 A 1.226 1.226 0 0 1 28.52 8.303 L 34.017 8.303 A 13.886 13.886 0 0 1 34.053 8.413 Q 34.069 8.462 34.086 8.515 A 24.083 24.083 0 0 1 34.121 8.625 Q 34.178 8.809 34.178 9.016 Q 34.178 9.821 33.373 9.821 Z" vector-effect="non-scaling-stroke"/>
  </g>
</svg>