<?xml version="1.0" encoding="UTF-8"?>
<svg width="97px" height="27px" viewBox="0 0 97 27" version="1.1" xmlns="http://www.w3.org/2000/svg" xmlns:xlink="http://www.w3.org/1999/xlink">
    <!-- Generator: Sketch 52.2 (67145) - http://www.bohemiancoding.com/sketch -->
    <title>logo</title>
    <desc>Created with Sketch.</desc>
    <defs>
        <linearGradient x1="99.6636927%" y1="4.20417214%" x2="4.20417214%" y2="100.336307%" id="linearGradient-1">
            <stop stop-color="#CD5447" offset="0%"></stop>
            <stop stop-color="#B3589C" offset="64.8572977%"></stop>
            <stop stop-color="#9D5CE5" offset="100%"></stop>
        </linearGradient>
        <linearGradient x1="50%" y1="0%" x2="50%" y2="100%" id="linearGradient-2">
            <stop stop-color="#F5515F" offset="0%"></stop>
            <stop stop-color="#9F041B" offset="100%"></stop>
        </linearGradient>
        <linearGradient x1="50%" y1="0%" x2="50%" y2="100%" id="linearGradient-3">
            <stop stop-color="#FAD961" offset="0%"></stop>
            <stop stop-color="#F76B1C" offset="100%"></stop>
        </linearGradient>
    </defs>
    <g id="Page-1" stroke="none" stroke-width="1" fill="none" fill-rule="evenodd">
        <g id="elements" transform="translate(-29.000000, -16.000000)">
            <g id="header" transform="translate(-9.000000, 0.000000)">
                <g id="logo" transform="translate(36.000000, 14.000000)">
                    <g id="Rectangle-14">
                        <rect fill="url(#linearGradient-1)" transform="translate(12.000000, 15.500000) rotate(30.000000) translate(-12.000000, -15.500000) " x="6" y="2" width="12" height="27" rx="6"></rect>
                        <rect fill="url(#linearGradient-2)" transform="translate(28.787981, 14.965304) rotate(30.000000) translate(-28.787981, -14.965304) " x="22.7879809" y="1.14896103" width="12" height="27.6326859" rx="6"></rect>
                        <path d="M20.2427858,1.11186028 L20.2427858,1.11186028 C23.5564943,1.11186028 26.2427858,3.79815178 26.2427858,7.11186028 L26.2427858,23.2983938 C26.2427858,26.6121023 23.5564943,29.2983938 20.2427858,29.2983938 L20.2427858,29.2983938 C16.9290773,29.2983938 14.2427858,26.6121023 14.2427858,23.2983938 L14.2427858,7.11186028 C14.2427858,3.79815178 16.9290773,1.11186028 20.2427858,1.11186028 Z" fill="url(#linearGradient-3)" transform="translate(20.242786, 15.205127) rotate(-30.000000) translate(-20.242786, -15.205127) "></path>
                    </g>
                    <path d="M57.68,22 C57.4346654,22 57.208001,21.9520005 57,21.856 C56.791999,21.7599995 56.6186674,21.5893346 56.48,21.344 L53.04,14.912 L53.04,21.344 C53.04,21.5573344 52.9306678,21.7199994 52.712,21.832 C52.4933322,21.9440006 52.2560013,22 52,22 C51.733332,22 51.4933344,21.9440006 51.28,21.832 C51.0666656,21.7199994 50.96,21.5573344 50.96,21.344 L50.96,10.96 C50.96,10.7359989 51.0666656,10.5706672 51.28,10.464 C51.4933344,10.3573328 51.733332,10.304 52,10.304 C52.192001,10.304 52.3573326,10.3173332 52.496,10.344 C52.6346674,10.3706668 52.7599994,10.4239996 52.872,10.504 C52.9840006,10.5840004 53.0933328,10.6959993 53.2,10.84 C53.3066672,10.9840007 53.4239994,11.1733322 53.552,11.408 L56.64,17.376 L56.64,10.944 C56.64,10.7199989 56.7466656,10.5573338 56.96,10.456 C57.1733344,10.3546662 57.413332,10.304 57.68,10.304 C57.9360013,10.304 58.1733322,10.3546662 58.392,10.456 C58.6106678,10.5573338 58.72,10.7199989 58.72,10.944 L58.72,21.344 C58.72,21.5573344 58.6106678,21.7199994 58.392,21.832 C58.1733322,21.9440006 57.9360013,22 57.68,22 Z M62.64,10.944 C62.64,10.7199989 62.7466656,10.5573338 62.96,10.456 C63.1733344,10.3546662 63.413332,10.304 63.68,10.304 C63.9360013,10.304 64.1733322,10.3546662 64.392,10.456 C64.6106678,10.5573338 64.72,10.7199989 64.72,10.944 L64.72,21.344 C64.72,21.5573344 64.6106678,21.7199994 64.392,21.832 C64.1733322,21.9440006 63.9360013,22 63.68,22 C63.413332,22 63.1733344,21.9440006 62.96,21.832 C62.7466656,21.7199994 62.64,21.5573344 62.64,21.344 L62.64,10.944 Z M75.36,22 C75.1146654,22 74.888001,21.9520005 74.68,21.856 C74.471999,21.7599995 74.2986674,21.5893346 74.16,21.344 L70.72,14.912 L70.72,21.344 C70.72,21.5573344 70.6106678,21.7199994 70.392,21.832 C70.1733322,21.9440006 69.9360013,22 69.68,22 C69.413332,22 69.1733344,21.9440006 68.96,21.832 C68.7466656,21.7199994 68.64,21.5573344 68.64,21.344 L68.64,10.96 C68.64,10.7359989 68.7466656,10.5706672 68.96,10.464 C69.1733344,10.3573328 69.413332,10.304 69.68,10.304 C69.872001,10.304 70.0373326,10.3173332 70.176,10.344 C70.3146674,10.3706668 70.4399994,10.4239996 70.552,10.504 C70.6640006,10.5840004 70.7733328,10.6959993 70.88,10.84 C70.9866672,10.9840007 71.1039994,11.1733322 71.232,11.408 L74.32,17.376 L74.32,10.944 C74.32,10.7199989 74.4266656,10.5573338 74.64,10.456 C74.8533344,10.3546662 75.093332,10.304 75.36,10.304 C75.6160013,10.304 75.8533322,10.3546662 76.072,10.456 C76.2906678,10.5573338 76.4,10.7199989 76.4,10.944 L76.4,21.344 C76.4,21.5573344 76.2906678,21.7199994 76.072,21.832 C75.8533322,21.9440006 75.6160013,22 75.36,22 Z M82.4,15.328 L84.832,15.328 C85.0453344,15.328 85.2079994,15.4133325 85.32,15.584 C85.4320006,15.7546675 85.488,15.9466656 85.488,16.16 C85.488,16.3413342 85.4346672,16.5199991 85.328,16.696 C85.2213328,16.8720009 85.0560011,16.96 84.832,16.96 L82.4,16.96 L82.4,20.176 L86.928,20.176 C87.1413344,20.176 87.3039994,20.2693324 87.416,20.456 C87.5280006,20.6426676 87.584,20.8586654 87.584,21.104 C87.584,21.3173344 87.5306672,21.519999 87.424,21.712 C87.3173328,21.904001 87.1520011,22 86.928,22 L81.232,22 C80.9973322,22 80.7866676,21.9440006 80.6,21.832 C80.4133324,21.7199994 80.32,21.5573344 80.32,21.344 L80.32,10.96 C80.32,10.7466656 80.4133324,10.5840006 80.6,10.472 C80.7866676,10.3599994 80.9973322,10.304 81.232,10.304 L86.928,10.304 C87.1520011,10.304 87.3173328,10.399999 87.424,10.592 C87.5306672,10.784001 87.584,10.9866656 87.584,11.2 C87.584,11.4453346 87.5280006,11.6613324 87.416,11.848 C87.3039994,12.0346676 87.1413344,12.128 86.928,12.128 L82.4,12.128 L82.4,15.328 Z M97.456,10.304 C97.6800011,10.304 97.8453328,10.4026657 97.952,10.6 C98.0586672,10.7973343 98.112,11.0079989 98.112,11.232 C98.112,11.4773346 98.0560006,11.695999 97.944,11.888 C97.8319994,12.080001 97.6693344,12.176 97.456,12.176 L95.12,12.176 L95.12,21.344 C95.12,21.5573344 95.0106678,21.7199994 94.792,21.832 C94.5733322,21.9440006 94.3360013,22 94.08,22 C93.813332,22 93.5733344,21.9440006 93.36,21.832 C93.1466656,21.7199994 93.04,21.5573344 93.04,21.344 L93.04,12.176 L90.688,12.176 C90.4746656,12.176 90.3120006,12.0826676 90.2,11.896 C90.0879994,11.7093324 90.032,11.4880013 90.032,11.232 C90.032,11.0079989 90.0853328,10.7973343 90.192,10.6 C90.2986672,10.4026657 90.4639989,10.304 90.688,10.304 L97.456,10.304 Z" id="ninet" fill="#4A505C"></path>
                </g>
            </g>
        </g>
    </g>
</svg>